<svg xmlns="http://www.w3.org/2000/svg" version="1.0" width="400.000000pt" height="128.000000pt" viewBox="0 0 400.000000 128.000000" preserveAspectRatio="xMidYMid meet">

<g transform="translate(0.000000,128.000000) scale(0.100000,-0.100000)" fill="#09b9e5" stroke="none">
<path d="M15 1268 c-3 -7 -4 -287 -3 -623 l3 -610 90 -3 c142 -5 134 -11 137 120 3 108 4 111 30 131 21 16 32 18 49 11 12 -6 72 -66 134 -135 l111 -124 127 -3 c183 -4 184 -11 -32 218 -70 74 -142 151 -159 170 l-31 35 161 161 c93 94 158 166 154 173 -5 7 -51 11 -129 11 l-122 0 -145 -145 -145 -145 -5 382 -5 383 -108 3 c-80 2 -109 -1 -112 -10z" fill="#09b9e5"/>
<path d="M2812 1268 c-17 -17 -17 -1209 0 -1226 16 -16 200 -16 216 0 17 17 17 1209 0 1226 -16 16 -200 16 -216 0z" fill="#09b9e5"/>
<path d="M1760 1248 c-38 -15 -74 -40 -117 -83 -51 -52 -64 -72 -82 -129 -26 -83 -28 -144 -5 -153 24 -9 129 13 178 37 110 53 181 157 193 283 l6 67 -59 -1 c-35 0 -82 -9 -114 -21z" fill="#09b9e5"/>
<path d="M1154 802 c-115 -41 -191 -109 -240 -215 -72 -158 -40 -332 83 -455 29 -30 78 -65 110 -80 51 -23 70 -27 163 -27 93 0 111 3 163 27 158 74 256 259 227 426 -34 196 -184 331 -375 339 -59 3 -93 -1 -131 -15z m211 -215 c59 -32 98 -113 91 -185 -6 -64 -28 -104 -79 -146 -35 -28 -46 -31 -107 -31 -61 0 -72 3 -107 31 -88 71 -106 189 -41 284 49 71 162 93 243 47z" fill="#09b9e5"/>
<path d="M2060 811 c-251 -77 -352 -413 -193 -641 42 -60 126 -124 182 -140 73 -20 161 -12 229 20 35 17 68 30 73 30 5 0 14 -11 19 -25 9 -24 13 -25 97 -25 49 0 94 4 101 8 9 7 12 90 10 383 l-3 374 -102 3 -103 3 0 -36 0 -35 -42 30 c-70 51 -191 74 -268 51z m213 -212 c68 -35 107 -101 107 -182 0 -156 -155 -248 -282 -168 -125 80 -116 276 17 349 26 15 130 15 158 1z" fill="#09b9e5"/>
<path d="M3443 799 c-116 -45 -212 -172 -235 -314 -29 -173 63 -364 209 -437 40 -19 64 -23 138 -23 78 0 98 4 146 27 31 16 59 28 63 28 3 0 11 -11 16 -25 9 -24 12 -25 104 -25 67 0 97 4 105 14 8 9 11 118 9 382 l-3 369 -105 0 -105 0 -3 -27 c-4 -33 -6 -34 -39 -8 -74 58 -206 75 -300 39z m246 -203 c78 -41 122 -135 102 -220 -40 -173 -251 -212 -342 -63 -56 93 -19 235 73 280 41 21 130 22 167 3z" fill="#09b9e5"/>
</g>
</svg>